<?xml version="1.0" standalone="no"?>
<!DOCTYPE svg PUBLIC "-//W3C//DTD SVG 20010904//EN"
 "http://www.w3.org/TR/2001/REC-SVG-20010904/DTD/svg10.dtd">
<svg version="1.0" xmlns="http://www.w3.org/2000/svg"
 width="800.000000pt" height="800.000000pt" viewBox="0 0 800.000000 800.000000"
 preserveAspectRatio="xMidYMid meet">
<metadata>
Created by potrace 1.11, written by Peter Selinger 2001-2013
</metadata>
<g transform="translate(0.000000,800.000000) scale(0.100000,-0.100000)"
fill="#000000" stroke="none">
<path d="M6097 7993 c-4 -3 -7 -25 -7 -47 0 -30 -3 -37 -10 -26 -8 13 -10 12
-10 -3 0 -10 11 -22 24 -27 21 -8 56 -50 41 -50 -2 0 4 -22 14 -48 16 -39 17
-52 7 -70 -14 -26 -26 -19 -26 14 0 21 -30 89 -30 69 0 -5 -7 -2 -15 9 -15 20
-14 23 -31 -62 -7 -32 -32 -39 -57 -14 -25 25 -18 38 12 22 29 -15 26 2 -6 41
l-28 32 28 -7 c15 -3 27 -2 27 3 0 21 -13 41 -26 41 -8 0 -17 7 -20 15 -5 13
-8 13 -21 0 -8 -9 -19 -13 -24 -10 -12 8 -12 -18 0 -30 14 -14 23 -137 11
-155 -8 -12 -10 -9 -10 12 0 15 -5 30 -10 33 -6 3 -8 17 -6 30 3 16 -2 28 -17
38 -31 19 -66 27 -73 15 -3 -5 -18 -9 -32 -8 -54 4 -72 0 -93 -21 -11 -11 -18
-27 -15 -35 3 -8 1 -14 -3 -14 -5 0 -14 14 -20 30 -12 35 -15 36 -43 10 -16
-14 -25 -17 -34 -9 -8 6 -13 14 -12 17 3 29 -3 34 -18 14 -18 -26 -41 -28 -65
-6 -24 22 -127 35 -137 18 -4 -8 -37 -16 -80 -20 -62 -5 -72 -4 -72 10 0 9 -7
16 -15 16 -8 0 -15 -7 -15 -16 0 -28 -35 -11 -38 19 -2 20 -13 34 -34 45 -16
10 -46 29 -65 44 l-36 28 -23 -25 c-13 -14 -35 -30 -49 -35 -15 -6 -24 -14
-20 -20 6 -10 -32 -38 -61 -45 -11 -2 -33 -8 -51 -14 -26 -7 -35 -6 -53 11
-12 12 -29 36 -36 54 -17 41 -42 44 -72 10 -12 -14 -38 -28 -59 -32 -21 -4
-56 -15 -78 -26 -22 -11 -60 -21 -85 -24 -48 -5 -76 -10 -125 -20 -20 -4 -26
-3 -16 4 7 6 9 12 4 15 -17 11 -57 -2 -75 -24 -22 -26 -38 -17 -32 20 3 17 -1
33 -10 40 -8 7 -12 19 -9 27 4 11 -5 14 -41 14 -38 0 -48 -4 -62 -25 -25 -38
-72 -33 -65 8 0 4 -7 7 -18 7 -10 0 -30 9 -44 20 -28 22 -58 25 -89 9 l-20
-11 21 -14 c33 -23 25 -35 -13 -19 -33 14 -34 14 -40 -11 -5 -20 -11 -24 -29
-19 -12 4 -29 16 -37 26 -16 20 -60 34 -60 19 0 -4 5 -10 10 -12 6 -2 12 -13
13 -26 0 -12 7 -23 14 -23 7 -1 18 -3 23 -4 6 -1 16 -3 23 -4 18 -2 71 -50 63
-58 -3 -4 -31 -8 -62 -9 -44 -1 -56 2 -65 17 -13 25 -29 24 -29 -1 0 -21 -7
-25 -28 -12 -7 5 -10 16 -6 25 5 13 0 17 -19 17 -33 0 -60 -27 -53 -53 4 -17
1 -19 -34 -13 -36 6 -38 5 -44 -27 -4 -17 -7 -44 -7 -59 0 -19 -4 -25 -14 -22
-8 3 -21 -6 -31 -21 -17 -26 -17 -28 1 -41 10 -8 22 -14 27 -14 4 0 8 -3 8 -7
-1 -22 -21 -33 -71 -38 -115 -11 -126 -17 -75 -42 20 -9 35 -21 33 -26 -1 -5
-6 -8 -11 -7 -5 1 -12 -4 -16 -10 -9 -15 -1 -52 10 -45 4 3 10 -4 13 -15 4
-17 1 -19 -19 -14 -35 9 -55 -11 -43 -42 12 -34 12 -37 -7 -30 -12 4 -15 0
-12 -16 2 -16 12 -24 32 -28 32 -6 50 -37 33 -58 -15 -19 -10 -69 8 -96 15
-20 15 -20 9 11 -9 44 1 69 21 53 8 -6 14 -15 13 -18 -3 -28 4 -43 17 -38 20
7 19 -8 0 -24 -11 -9 -15 -27 -13 -54 2 -29 -1 -40 -9 -38 -33 6 13 -47 64
-75 29 -17 33 -16 33 2 0 9 7 18 15 21 10 4 13 14 9 33 l-5 26 20 -24 c12 -13
21 -29 21 -37 0 -8 5 -14 10 -14 6 0 8 -11 4 -27 -7 -27 -6 -28 13 -10 25 22
51 24 33 3 -15 -20 -9 -61 10 -61 8 0 14 7 12 17 -4 25 17 32 37 14 10 -9 25
-14 33 -11 8 3 26 -3 39 -14 17 -15 20 -20 8 -21 -8 0 -20 5 -26 11 -22 22
-20 -16 3 -52 l23 -37 43 15 c24 8 48 19 55 25 9 7 26 3 58 -12 44 -21 47 -21
59 -5 15 20 40 11 32 -11 -4 -9 3 -18 17 -23 32 -13 286 -5 326 10 l34 12 -21
18 -22 17 30 10 c19 7 32 20 36 36 6 27 23 36 25 14 1 -7 0 -30 -1 -52 -1 -28
2 -37 12 -34 7 3 14 15 14 27 1 13 7 27 13 31 11 6 17 24 20 53 1 4 19 7 41 7
34 0 40 3 40 22 0 20 1 20 19 4 17 -16 22 -16 43 -3 34 22 178 47 178 32 0 -7
-10 -15 -22 -19 -35 -9 -6 -22 49 -22 27 1 49 5 50 9 1 5 9 14 19 21 9 7 18
23 19 37 4 38 4 39 16 39 6 0 10 -12 9 -27 -5 -65 -1 -70 24 -39 23 27 25 28
41 13 12 -13 21 -15 36 -7 11 6 50 13 87 15 37 3 68 8 69 12 11 31 40 78 52
81 10 3 12 -3 9 -27 -4 -25 -1 -31 14 -31 12 0 18 7 18 23 0 33 15 49 41 45
18 -2 25 -10 27 -30 3 -29 17 -35 42 -18 13 9 13 12 -2 23 -17 13 -18 27 -4
59 7 15 9 15 27 -3 18 -18 22 -18 48 -5 16 9 31 22 34 31 8 21 27 19 28 -2 0
-10 9 0 18 22 17 37 19 38 22 15 3 -20 9 -24 28 -22 13 1 30 -3 37 -9 20 -17
18 6 -2 26 -9 9 -14 18 -11 22 8 7 57 -47 57 -63 0 -25 16 -15 38 25 19 33 20
40 8 50 -8 7 -13 20 -11 29 2 9 4 22 4 27 1 6 11 -9 22 -33 13 -27 27 -41 35
-38 7 3 16 -4 19 -15 8 -25 20 -24 39 3 l15 21 11 -27 c5 -15 10 -33 10 -40 0
-14 29 -43 31 -32 1 3 3 11 4 16 1 6 3 17 4 25 0 8 8 15 16 15 11 0 14 12 14
50 -2 54 3 66 20 56 7 -4 8 -28 5 -63 -6 -54 -6 -55 16 -48 20 6 22 4 18 -13
-3 -12 0 -29 8 -39 13 -17 15 -17 24 -1 6 9 17 15 24 12 22 -8 56 14 50 31 -4
8 -2 15 4 15 17 0 35 -29 29 -50 -6 -22 3 -26 19 -10 19 19 75 19 92 -1 20
-23 36 -25 28 -4 -3 8 1 18 8 22 7 5 18 17 24 28 11 20 11 20 12 0 0 -11 9
-26 20 -33 11 -7 20 -19 20 -27 0 -20 6 -19 44 10 37 28 56 32 56 12 0 -14 31
-47 43 -47 4 0 7 10 7 23 0 37 12 40 31 7 12 -19 24 -28 33 -24 13 5 13 9 2
27 -14 24 -16 47 -3 47 4 0 11 0 16 0 5 0 13 -10 17 -22 6 -21 7 -21 20 -3 13
17 14 16 14 -13 0 -23 5 -32 16 -32 13 0 15 7 12 32 -4 26 -3 28 7 15 7 -10
18 -17 25 -17 7 0 10 -7 7 -15 -4 -8 -2 -17 2 -20 15 -9 21 24 21 113 0 48 5
94 10 102 9 13 10 13 11 0 1 -8 1 -28 0 -45 -1 -24 1 -27 11 -17 10 10 16 8
30 -10 22 -30 35 -16 18 19 -20 42 -19 69 4 65 25 -5 11 15 -25 33 -32 17 -37
36 -15 54 34 28 102 17 90 -14 -5 -11 -2 -13 12 -8 11 3 22 11 26 17 4 7 16 2
32 -14 15 -13 27 -20 27 -17 1 4 2 12 3 19 0 6 9 12 18 14 10 1 31 12 48 24
32 23 58 30 127 34 24 1 46 6 50 10 9 9 -18 27 -29 20 -5 -3 -32 6 -61 20 -29
13 -65 28 -80 31 -35 9 -35 27 1 23 17 -2 26 1 25 10 -4 18 12 15 32 -8 22
-24 34 -18 27 15 -3 19 -10 25 -32 25 -15 0 -44 13 -65 30 -40 32 -50 35 -59
21 -11 -16 -49 -6 -52 14 -4 26 25 85 42 86 30 3 65 18 84 38 13 13 12 14 -10
6 -36 -13 -140 -9 -175 5 -16 8 -38 14 -47 14 -10 1 -18 6 -18 11 0 10 4 11
35 14 40 3 2 27 -83 52 -36 11 -45 10 -52 -1 -7 -12 -13 -10 -30 10 -18 20
-23 22 -31 10 -8 -13 -12 -12 -25 5 -8 11 -18 19 -22 18 -4 -2 -7 7 -7 20 0
22 -27 46 -53 47 -8 0 -25 9 -38 19 -19 15 -31 17 -59 11 -20 -4 -42 -13 -49
-19 -10 -9 -16 -9 -21 -1 -4 6 -14 8 -24 5 -11 -3 -28 7 -50 30 -18 19 -39 35
-47 35 -9 0 -13 4 -10 9 9 15 -83 28 -97 14z"/>
<path d="M5424 7928 c-9 -25 -11 -33 -13 -48 0 -5 -4 -9 -8 -7 -5 1 -10 -2
-13 -8 -3 -5 5 -11 18 -13 12 -2 22 -2 23 0 0 2 3 24 6 51 5 50 -1 62 -13 25z"/>
<path d="M4310 7916 c0 -7 -7 -16 -15 -20 -23 -9 -18 -28 8 -25 12 2 28 0 35
-5 18 -11 25 -2 17 23 -8 26 -45 49 -45 27z"/>
<path d="M6973 7605 c-10 -7 -15 -17 -10 -21 9 -9 60 7 61 20 1 15 -31 15 -51
1z"/>
<path d="M3289 7550 c-6 -5 -9 -15 -6 -24 6 -14 10 -15 29 -4 13 6 31 11 41 9
9 -1 17 3 17 8 0 6 -6 12 -12 12 -7 1 -23 3 -35 4 -12 1 -27 -1 -34 -5z"/>
<path d="M6823 7210 c3 -20 44 -70 58 -70 4 0 17 9 30 21 l24 20 -22 -6 c-14
-4 -23 -2 -23 4 0 6 5 12 10 12 6 1 15 3 20 4 6 1 18 3 28 4 13 2 12 4 -6 11
-25 10 -50 9 -70 -3 -7 -5 -14 -2 -18 7 -9 23 -34 20 -31 -4z"/>
<path d="M6417 6953 c5 -12 50 -30 57 -22 2 2 -11 11 -29 20 -26 12 -32 12
-28 2z"/>
<path d="M4535 6793 c-11 -3 -28 -12 -37 -21 -18 -15 -24 -42 -10 -42 4 -1 24
-3 45 -6 30 -5 37 -2 37 11 0 9 -7 16 -17 14 -30 -2 -43 1 -43 10 0 5 6 9 13
8 31 -1 45 4 51 18 5 15 -2 17 -39 8z"/>
<path d="M5134 5476 c-8 -20 0 -51 12 -49 6 1 11 -5 11 -13 0 -7 -6 -14 -14
-14 -26 0 -12 -21 17 -27 22 -4 36 -16 49 -42 11 -20 28 -45 40 -55 27 -25 26
-37 -4 -66 l-24 -23 -11 27 c-6 16 -15 24 -21 21 -6 -4 -10 0 -9 11 7 61 -9
71 -34 22 -16 -33 -16 -33 -16 -6 0 15 -7 34 -16 42 -18 19 -19 19 -46 5 l-21
-11 24 -19 c23 -17 23 -19 9 -59 -14 -39 -35 -56 -35 -28 0 7 -16 15 -35 18
-19 4 -46 12 -59 19 -25 14 -35 8 -55 -30 -6 -12 -21 -23 -33 -24 -23 -2 -31
9 -14 20 5 3 7 18 4 33 -3 15 -6 34 -7 42 -2 8 -7 15 -12 15 -5 1 -18 6 -30
12 -12 7 -33 10 -48 7 -14 -2 -36 0 -47 7 -11 6 -28 7 -37 3 -9 -4 -57 -8
-107 -9 -49 -1 -99 -6 -110 -13 -48 -28 -50 -29 -36 -46 23 -27 -4 -18 -39 14
-40 36 -72 38 -92 8 l-15 -23 -35 27 c-26 20 -38 24 -51 16 -29 -16 -99 -12
-112 6 -10 13 -35 17 -113 20 -112 5 -142 0 -142 -20 0 -19 -26 -18 -34 2 -5
13 -9 14 -21 4 -8 -7 -34 -13 -58 -14 -55 -3 -70 -12 -61 -38 5 -17 3 -20 -11
-15 -9 4 -19 7 -21 7 -2 0 -4 7 -4 15 0 20 -50 52 -58 38 -7 -11 -37 -16 -79
-14 -12 1 -24 9 -28 20 -3 12 -13 17 -28 16 -12 -1 -28 -3 -36 -4 -7 0 -11 -7
-8 -13 3 -9 -7 -13 -32 -14 -20 -1 -46 -5 -58 -9 -16 -5 -23 -2 -28 14 -3 12
-13 21 -20 21 -9 0 -12 6 -9 15 5 11 1 14 -15 12 -28 -4 -52 -27 -28 -27 36 0
15 -19 -25 -22 -24 -2 -43 -9 -46 -17 -3 -9 0 -11 8 -6 9 6 10 3 2 -12 -6 -10
-21 -19 -35 -21 -13 -1 -48 -13 -76 -27 -28 -15 -56 -23 -61 -20 -26 16 -120
-85 -120 -129 0 -12 -14 -37 -30 -56 -29 -34 -30 -36 -12 -50 14 -11 16 -19 8
-26 -31 -31 -83 -95 -118 -146 -22 -34 -48 -60 -61 -62 -12 -3 -39 -8 -60 -11
-21 -3 -40 -13 -43 -21 -2 -7 -6 -21 -9 -30 -7 -23 -16 -12 -18 21 -4 55 -64
34 -73 -25 -6 -38 -28 -73 -84 -133 -19 -21 -42 -51 -51 -67 -9 -16 -19 -27
-22 -24 -12 12 -28 -7 -18 -20 8 -9 1 -22 -24 -46 -23 -23 -35 -43 -35 -62 0
-19 -4 -26 -14 -22 -8 3 -29 -8 -47 -23 -19 -16 -46 -36 -60 -45 -14 -9 -32
-30 -39 -47 -9 -22 -19 -31 -35 -31 -28 0 -81 -60 -90 -101 -6 -28 -31 -56
-41 -47 -2 3 -6 15 -9 26 -10 52 -18 53 -65 6 -24 -25 -46 -40 -48 -34 -2 6 6
20 19 31 12 10 20 22 17 25 -3 3 -12 -1 -19 -8 -30 -29 -112 -88 -123 -88 -7
0 -12 -10 -13 -21 -1 -12 -10 -30 -19 -40 -27 -29 -11 -32 20 -4 15 14 32 23
37 19 10 -6 -58 -74 -74 -74 -5 0 -17 5 -28 10 -16 9 -19 7 -19 -11 0 -17 -5
-20 -25 -17 -18 4 -26 0 -31 -14 -4 -14 -9 -16 -19 -8 -7 6 -20 7 -30 4 -21
-9 -65 -52 -65 -64 0 -6 -4 -10 -9 -10 -9 0 -47 -70 -43 -82 1 -3 -5 -12 -14
-18 -13 -11 -13 -15 2 -31 22 -24 6 -45 -48 -61 -22 -6 -42 -17 -45 -24 -4
-10 -9 -10 -24 -1 -15 10 -23 7 -49 -18 -34 -32 -40 -51 -11 -33 15 9 23 9 35
-2 14 -11 20 -10 39 8 13 12 34 23 47 24 14 2 37 15 52 30 15 16 36 28 47 28
10 0 22 7 25 16 3 9 15 14 28 12 32 -5 32 -21 -1 -36 -16 -7 -42 -30 -57 -50
-61 -82 -160 -157 -141 -107 4 8 2 17 -2 20 -11 6 -21 -19 -21 -56 0 -23 -6
-32 -33 -43 -37 -15 -45 -13 -27 9 10 12 10 15 -4 15 -30 0 -75 -29 -74 -47 1
-10 -2 -29 -6 -42 -5 -13 -4 -21 1 -18 5 3 15 1 23 -4 12 -7 6 -18 -32 -52
-37 -32 -46 -47 -42 -63 3 -12 1 -31 -5 -42 -9 -17 -8 -20 7 -17 29 4 32 -4
12 -43 -26 -52 -30 -96 -8 -100 11 -2 18 3 18 11 0 17 42 47 64 47 9 0 13 -7
11 -20 -5 -25 10 -26 24 -2 9 14 10 12 11 -13 0 -16 -4 -37 -10 -45 -7 -12
-14 -9 -36 15 l-27 29 -16 -31 c-13 -25 -74 -101 -126 -157 -5 -6 -17 -20 -25
-30 -14 -18 -13 -18 10 -11 14 4 29 14 35 21 15 19 60 34 75 24 11 -7 8 -13
-13 -30 -25 -20 -36 -41 -19 -39 4 1 25 1 47 0 l40 -2 -31 -13 c-22 -10 -35
-25 -44 -51 -13 -41 -11 -45 19 -48 28 -2 27 -11 -5 -26 -27 -12 -28 -34 -3
-39 9 -1 33 10 55 25 21 15 53 28 69 28 17 1 56 6 88 10 40 5 57 4 57 -4 0
-17 27 -13 34 5 3 8 11 12 16 9 8 -5 7 -11 0 -20 -7 -8 -8 -20 -4 -26 4 -7 0
-17 -10 -24 -15 -11 -14 -14 10 -30 19 -12 39 -16 68 -12 37 5 39 4 21 -8 -11
-8 -29 -21 -40 -30 -20 -16 -20 -16 2 -10 12 3 39 7 60 9 32 3 38 8 37 26 -1
18 4 21 33 17 35 -5 41 1 21 21 -9 9 -8 16 5 30 23 26 21 42 -5 42 -23 1 -23
1 2 15 15 8 29 10 35 4 12 -12 38 -12 30 1 -8 14 1 13 28 -3 33 -20 45 -16 65
22 10 19 25 37 33 40 11 3 11 1 3 -10 -9 -13 -10 -20 -6 -56 2 -12 15 -11 44
2 25 10 23 24 -2 18 -11 -3 -20 -1 -20 5 0 12 58 72 68 70 18 -3 62 15 62 27
0 17 62 48 85 43 15 -3 9 -8 -22 -18 -30 -9 -42 -19 -46 -36 -5 -28 1 -30 20
-6 14 16 14 16 9 0 -8 -26 9 -31 43 -13 40 20 55 19 46 -2 -12 -34 18 5 40 50
11 23 36 52 55 65 25 17 35 31 35 50 0 22 6 27 35 33 21 5 47 21 65 41 53 59
95 113 95 121 0 5 4 6 9 2 6 -3 6 -17 -1 -36 -6 -16 -8 -32 -5 -35 16 -17 468
408 481 453 11 36 -9 34 -43 -4 -17 -19 -34 -33 -38 -30 -6 7 -4 10 55 87 19
26 30 50 27 60 -12 37 31 71 50 40 4 -6 16 -8 28 -4 20 6 20 5 8 -10 -9 -11
-24 -16 -38 -13 -25 5 -28 -4 -13 -34 9 -16 14 -17 33 -8 31 17 35 26 35 76 0
36 -3 43 -19 43 -32 0 -21 24 36 79 59 57 64 65 39 75 -20 8 -15 15 16 21 27
5 82 54 74 66 -2 4 20 32 49 61 29 29 64 70 76 91 23 37 47 41 38 6 -3 -12 0
-19 10 -19 9 0 13 6 9 15 -4 10 3 19 19 25 13 5 42 25 63 44 22 20 54 42 73
50 19 9 28 15 20 16 -9 0 -11 7 -8 22 3 11 -1 37 -9 56 -13 32 -13 37 2 54 23
25 34 23 34 -6 0 -13 3 -33 7 -43 6 -16 8 -15 13 7 4 17 12 24 24 22 14 -3 17
3 16 25 -3 46 -1 50 28 46 19 -3 31 1 39 15 9 16 7 24 -12 46 -13 15 -21 34
-18 42 8 22 21 17 38 -17 14 -26 18 -29 32 -17 9 7 25 32 35 55 10 23 24 45
30 49 6 4 8 3 5 -3 -9 -15 16 -33 49 -36 38 -3 42 19 4 26 -29 6 -42 26 -17
28 6 0 33 2 58 3 54 3 80 23 72 56 -5 20 -3 21 18 15 13 -4 42 -20 63 -36 24
-18 52 -29 70 -28 26 0 28 2 15 11 -15 10 -12 14 18 35 18 13 36 23 38 23 2 0
10 -11 17 -25 17 -32 38 -19 42 26 2 27 7 33 22 31 10 -2 23 -5 28 -5 6 -1 12
6 14 16 2 10 -2 17 -12 17 -9 0 -23 14 -31 31 l-16 30 26 -17 c34 -22 45 -44
45 -88 0 -38 10 -45 30 -21 13 16 65 21 55 6 -11 -19 17 -23 30 -5 13 18 14
18 37 -3 29 -27 52 -33 53 -13 0 9 10 15 25 15 17 0 29 8 38 28 17 34 8 46
-19 28 -12 -7 -23 -10 -27 -7 -9 10 30 86 45 86 8 0 13 -6 10 -12 -2 -7 4 -25
14 -39 10 -14 16 -29 13 -31 -2 -3 4 -8 16 -11 11 -3 22 -1 25 3 10 16 47 -3
57 -29 l10 -26 18 23 c10 12 25 22 33 22 19 0 67 -45 67 -63 0 -20 9 -26 30
-20 13 4 17 12 14 29 -4 24 -1 27 45 28 25 1 35 23 21 46 -6 9 -13 9 -28 1
-28 -15 -42 -14 -42 4 0 8 8 16 18 17 9 0 22 2 27 3 6 2 14 3 19 4 6 0 5 6 -2
13 -20 20 -14 27 20 24 32 -2 54 -26 24 -26 -21 0 -14 -65 10 -91 18 -20 50
-26 38 -8 -3 6 -1 15 7 19 23 15 30 0 14 -30 -13 -24 -13 -30 0 -40 19 -16 31
-7 39 30 3 17 13 33 21 36 20 8 75 -15 75 -31 0 -16 23 -25 39 -16 9 6 8 11
-3 21 -32 26 15 42 53 18 15 -9 17 -16 9 -31 -11 -21 -3 -67 11 -67 6 0 11 10
13 22 2 15 16 29 43 42 22 10 43 23 46 28 3 5 9 0 12 -11 3 -12 9 -21 14 -19
19 5 72 -15 89 -33 21 -23 34 -25 34 -4 0 8 -4 15 -10 15 -20 0 -9 18 15 24
14 4 35 16 46 27 19 19 46 18 34 -2 -4 -5 1 -19 9 -31 9 -12 16 -19 16 -15 0
15 48 -25 53 -44 4 -16 2 -19 -15 -13 -17 5 -18 3 -9 -14 10 -19 63 -34 89
-25 14 6 16 39 2 48 -5 3 -10 -2 -10 -12 0 -12 -8 -19 -20 -20 -44 -4 -13 51
45 78 42 20 72 19 60 -2 -4 -5 5 -9 19 -9 54 0 69 -19 40 -51 -15 -17 -14 -19
11 -25 63 -16 103 -10 63 10 -31 16 -34 43 -7 72 l23 25 13 -24 c9 -18 21 -24
48 -25 20 -1 40 -4 45 -7 18 -11 10 12 -10 30 -19 18 -28 55 -12 55 11 0 55
-31 69 -50 11 -13 12 -12 13 6 0 11 3 23 6 26 10 11 45 -5 56 -26 9 -17 8 -19
-3 -8 -17 16 -29 15 -29 -2 0 -21 19 -24 148 -17 22 1 23 4 17 49 -8 55 -7
140 2 155 3 5 15 -7 25 -27 10 -20 23 -34 28 -31 5 3 27 -3 49 -15 22 -11 54
-20 70 -20 16 0 37 -7 45 -16 9 -8 16 -11 16 -6 0 17 -35 40 -70 46 -48 7 -83
56 -40 56 11 0 19 6 17 13 -2 14 -35 46 -63 63 -22 14 -11 31 27 41 40 10 125
12 140 2 11 -7 11 -9 -3 -9 -9 0 -19 -4 -22 -8 -8 -13 81 -7 97 6 11 10 20 8
40 -8 33 -26 75 -37 57 -15 -6 8 -9 18 -6 23 8 13 67 2 73 -14 6 -17 44 0 40
18 -3 16 40 36 89 42 21 3 88 6 147 7 100 2 136 10 104 22 -7 2 -36 4 -64 3
-43 -1 -53 2 -57 18 -2 10 -8 16 -13 13 -4 -2 -35 -1 -68 4 -107 16 -139 18
-145 8 -9 -13 -50 -20 -50 -9 0 14 50 37 98 45 26 4 42 12 42 21 0 20 23 17
43 -6 9 -11 22 -20 28 -20 6 0 8 8 4 20 -4 13 -2 20 6 20 7 0 9 3 6 6 -6 6
-22 9 -68 13 -9 0 -22 12 -29 26 -15 28 -34 23 -25 -6 5 -15 1 -19 -15 -19
-11 0 -23 7 -27 16 -3 8 -12 13 -20 10 -8 -3 -27 4 -42 15 -25 18 -32 19 -52
8 -26 -14 -78 -19 -85 -8 -2 4 3 12 12 19 12 10 12 15 2 21 -10 6 -9 12 2 26
8 10 20 28 27 39 11 21 10 22 -55 29 -37 4 -76 9 -87 12 -11 2 -31 6 -45 9
-14 2 -36 7 -50 11 -14 3 -29 5 -33 4 -5 -1 -7 4 -5 11 3 7 20 15 39 16 l34 4
-50 19 c-33 12 -75 19 -122 19 -45 0 -73 4 -73 11 0 5 -8 9 -17 8 -49 -4 -55
0 -48 33 6 26 5 30 -10 25 -9 -4 -19 -7 -21 -7 -3 0 -2 -4 1 -10 7 -11 -25
-70 -38 -70 -4 0 -7 7 -5 16 2 11 -9 20 -31 28 -33 11 -44 22 -55 59 -5 16
-12 18 -46 12 -35 -6 -46 -3 -75 20 -31 23 -40 25 -82 18 -27 -5 -67 -8 -91
-7 -30 2 -45 -2 -49 -12 -7 -19 -19 -18 -44 7 l-20 20 -6 -20 c-6 -25 -16 -26
-33 -6 -7 9 -47 32 -88 52 -64 31 -87 36 -163 40 -73 4 -90 2 -95 -11z"/>
<path d="M3112 5410 c-15 -20 -18 -30 -9 -30 7 0 21 14 30 30 10 17 14 30 9
30 -4 0 -18 -13 -30 -30z"/>
<path d="M5020 5432 c0 -12 30 -52 40 -52 5 0 2 14 -6 30 -14 28 -34 41 -34
22z"/>
<path d="M3908 5403 c-2 -20 -9 -29 -25 -31 -27 -4 -31 -21 -5 -23 33 -2 56 3
67 16 5 7 17 15 25 18 11 4 9 7 -8 13 -21 6 -21 7 -5 20 16 12 15 13 -14 14
-27 0 -32 -4 -35 -27z"/>
<path d="M4904 5379 c-3 -6 -15 -9 -27 -7 -28 4 -29 -21 -2 -36 29 -16 34 -27
25 -52 -10 -26 5 -43 23 -25 17 17 52 13 80 -9 15 -12 28 -16 32 -11 3 6 -18
26 -47 47 -45 30 -48 35 -23 29 42 -11 67 -8 76 7 6 8 2 15 -9 19 -9 4 -41 16
-69 27 -32 12 -55 16 -59 11z"/>
<path d="M6466 5231 c-7 -10 6 -26 31 -40 28 -14 32 -14 29 4 -4 29 -49 55
-60 36z"/>
<path d="M2880 5200 c-12 -12 -20 -24 -17 -26 8 -8 35 7 41 23 10 25 -1 26
-24 3z"/>
<path d="M6649 5164 c-9 -11 -7 -14 10 -14 12 0 19 -4 16 -10 -3 -5 1 -10 9
-10 23 0 20 37 -4 43 -10 3 -24 -1 -31 -9z"/>
<path d="M6713 5098 c-13 -6 -23 -15 -23 -20 0 -12 38 -10 63 4 12 6 37 11 57
10 28 0 31 1 15 8 -28 12 -86 11 -112 -2z"/>
<path d="M6430 4705 c0 -15 39 -42 74 -51 14 -3 26 -10 26 -15 0 -5 11 -9 25
-9 22 0 25 3 19 25 -4 15 -2 25 5 25 14 0 15 27 1 35 -5 3 -24 -2 -41 -12 -28
-17 -31 -17 -40 -1 -11 19 -69 22 -69 3z"/>
<path d="M6642 4688 c-40 -25 -38 -29 12 -18 43 10 51 15 41 29 -8 14 -14 13
-53 -11z"/>
<path d="M4990 4520 c0 -15 5 -20 18 -18 9 2 17 10 17 18 0 8 -8 16 -17 18
-13 2 -18 -3 -18 -18z"/>
<path d="M3793 4463 c-22 -8 -14 -30 10 -27 12 1 26 3 30 3 5 1 7 6 5 13 -4
12 -26 18 -45 11z"/>
<path d="M2000 4308 c0 -4 -8 -8 -17 -8 -18 0 -63 -56 -63 -78 0 -21 15 -13
63 33 49 47 57 62 32 62 -8 0 -15 -4 -15 -9z"/>
<path d="M1480 3979 c-52 -32 -110 -79 -110 -90 0 -11 62 31 120 81 41 35 38
38 -10 9z"/>
<path d="M3040 3680 c-21 -29 -50 -41 -50 -20 0 6 5 10 10 10 6 0 10 5 10 10
0 16 -25 12 -48 -9 -23 -19 -29 -46 -12 -56 5 -3 7 -12 3 -20 -10 -28 12 -15
66 40 30 30 59 55 63 55 5 0 6 5 3 10 -10 17 -23 11 -45 -20z"/>
<path d="M6282 3224 c-22 -21 -22 -22 -2 -27 13 -3 24 1 29 12 16 28 -2 38
-27 15z"/>
<path d="M6300 3180 c-30 -16 -61 -30 -69 -30 -8 0 -19 -7 -26 -17 -7 -10 -14
-12 -18 -6 -4 6 4 23 18 39 29 34 25 43 -9 20 -14 -9 -33 -16 -42 -16 -9 0
-32 -14 -51 -30 -28 -25 -38 -29 -49 -19 -11 9 -14 8 -14 -5 0 -20 -24 -21
-40 -1 -14 17 -52 17 -49 0 1 -5 10 -9 19 -7 27 4 39 -37 23 -77 -11 -25 -11
-37 -3 -45 8 -8 14 -6 21 7 12 21 61 24 53 3 -3 -8 -16 -17 -30 -20 -13 -4
-24 -11 -24 -16 0 -18 -19 -10 -45 17 -30 33 -31 40 -5 48 32 10 25 35 -10 35
-17 0 -39 9 -51 21 l-21 21 -19 -21 c-11 -12 -30 -21 -44 -21 -13 0 -25 -3
-27 -7 -1 -5 -16 -15 -33 -24 -16 -9 -38 -33 -48 -52 -18 -36 -43 -47 -102
-45 -11 1 -32 -2 -47 -5 -17 -3 -28 -1 -32 8 -4 10 -13 6 -37 -16 -17 -16 -40
-29 -51 -29 -16 0 -18 -3 -9 -13 6 -8 7 -17 1 -23 -5 -5 -3 -22 5 -41 13 -29
18 -33 54 -33 39 0 54 -10 56 -40 1 -8 5 -26 10 -40 7 -22 6 -23 -8 -11 -10 7
-25 10 -34 6 -17 -6 -17 -7 -2 -19 20 -14 59 -81 59 -99 0 -7 -7 -4 -14 6 -10
12 -16 15 -21 7 -7 -11 -70 -8 -82 3 -8 9 7 27 23 27 8 0 13 4 9 9 -9 16 -65
0 -65 -18 0 -5 14 -25 30 -46 30 -38 39 -65 20 -65 -5 0 -10 7 -10 15 0 9 -9
15 -25 15 -16 0 -25 6 -25 15 0 9 -11 20 -25 27 -21 9 -29 7 -58 -18 -19 -16
-53 -44 -75 -62 -50 -41 -70 -85 -51 -108 12 -15 9 -16 -29 -10 -29 4 -42 2
-44 -7 0 -7 -2 -16 -2 -22 -4 -29 -18 -36 -42 -21 -29 20 -35 20 -27 1 8 -23
-26 -55 -59 -55 -15 0 -28 -4 -28 -9 0 -5 -9 -13 -20 -16 -29 -9 -77 -56 -82
-79 -5 -30 -34 -43 -59 -27 -20 12 -21 11 -14 -6 20 -47 18 -63 -7 -63 -14 0
-38 -14 -58 -35 -39 -41 -49 -42 -81 -15 -25 22 -76 24 -71 3 4 -24 -94 -6
-110 19 -5 9 -8 4 -8 -14 0 -14 -6 -29 -12 -31 -10 -4 -10 -6 0 -6 19 -1 14
-48 -8 -69 -20 -19 -19 -49 2 -63 5 -3 -9 -28 -32 -55 -22 -27 -40 -52 -40
-57 0 -11 -63 -37 -81 -33 -8 2 -27 8 -42 14 -53 22 -77 8 -77 -43 0 -24 -13
-46 -50 -89 -27 -31 -50 -62 -50 -69 0 -21 -52 -85 -91 -113 -21 -14 -39 -32
-39 -39 0 -7 -8 -19 -17 -26 -10 -8 -14 -9 -10 -2 4 6 3 14 -2 17 -12 8 -65
-60 -58 -72 11 -16 -10 -34 -32 -27 -12 3 -19 10 -16 14 2 4 -6 13 -18 19 -49
24 -62 23 -92 -8 -16 -16 -35 -30 -43 -30 -9 0 -11 -7 -7 -22 14 -46 2 -68
-39 -68 -17 0 -37 -4 -45 -9 -8 -6 -24 -6 -38 0 -19 7 -29 3 -58 -22 -49 -43
-46 -60 7 -53 38 6 41 5 29 -10 -7 -9 -23 -16 -35 -16 -12 0 -31 -7 -42 -15
-19 -14 -18 -14 4 -15 30 0 28 -15 -7 -39 -30 -22 -70 -27 -86 -12 -6 4 -17 0
-27 -10 -17 -18 -17 -19 2 -19 11 0 20 -5 20 -11 0 -7 9 -9 23 -4 12 3 35 8
51 11 17 2 32 8 35 12 3 4 15 8 26 7 11 0 25 6 31 14 12 16 34 7 34 -14 0 -8
-10 -20 -22 -26 -13 -7 -39 -29 -59 -50 -37 -40 -57 -47 -76 -28 -8 8 -13 7
-18 -1 -4 -7 -2 -16 4 -20 13 -8 0 -22 -32 -33 -12 -5 -17 -2 -15 8 2 7 0 14
-4 14 -29 3 -37 -3 -47 -30 -14 -42 -14 -49 4 -49 24 0 17 -27 -12 -48 -22
-16 -25 -23 -16 -33 6 -6 9 -18 6 -25 -3 -8 0 -21 7 -29 6 -8 10 -33 7 -60 -4
-47 4 -62 26 -48 20 13 35 12 47 -2 6 -8 18 -11 27 -8 11 4 14 2 11 -8 -3 -8
-16 -14 -31 -13 -30 1 -64 -30 -97 -90 l-21 -39 35 6 c37 6 45 0 25 -20 -13
-13 15 -43 42 -43 25 0 24 -8 -6 -32 -28 -22 -33 -48 -9 -48 12 0 15 -6 10
-24 -8 -34 15 -52 46 -33 13 7 32 12 43 11 104 -13 171 -32 157 -46 -6 -6 -8
-18 -4 -27 7 -19 42 -55 63 -65 8 -3 -2 -4 -21 -1 -27 4 -32 3 -22 -7 13 -13
162 -21 162 -9 0 19 -50 53 -70 48 -29 -7 -25 11 5 25 19 9 28 9 37 0 18 -18
28 -15 28 8 0 25 11 25 41 2 25 -19 73 -36 64 -23 -2 5 2 17 10 27 14 18 14
18 15 -7 0 -25 16 -39 42 -39 6 0 3 11 -5 24 -15 22 -14 24 6 34 12 6 38 16
58 22 36 10 71 41 82 70 3 10 6 7 6 -8 1 -13 -13 -37 -34 -58 -19 -19 -35 -40
-35 -47 0 -7 7 -3 16 8 12 16 16 17 23 6 5 -7 25 -14 44 -16 31 -2 38 2 54 32
9 18 26 36 36 39 11 3 16 12 13 20 -3 9 10 24 37 40 23 15 51 38 62 51 l20 25
19 -21 19 -21 33 28 c18 15 54 43 80 62 63 46 171 154 189 190 11 22 12 31 3
36 -6 4 -14 2 -16 -4 -2 -7 -13 -17 -24 -23 -20 -11 -20 -10 2 26 12 20 23 52
24 70 1 41 14 56 27 32 6 -9 16 -17 23 -17 22 0 26 26 9 50 -15 21 -14 24 20
53 28 26 33 36 27 52 -13 30 -12 31 17 30 22 0 31 7 45 37 10 20 26 39 36 42
9 3 23 19 29 36 10 26 15 29 42 24 24 -5 37 0 68 25 21 17 43 31 50 31 18 0
16 14 -7 55 -32 57 -21 76 19 33 17 -17 23 -19 36 -8 9 7 13 22 10 37 -4 22
-1 25 21 20 19 -3 24 -1 22 12 -2 10 13 26 40 43 23 16 52 44 64 64 12 20 26
33 33 30 22 -8 24 20 4 54 l-20 32 36 36 c19 20 35 40 35 44 0 4 10 12 21 19
16 8 27 8 45 -1 24 -14 54 -8 54 10 0 6 -8 10 -17 9 -33 -3 -43 1 -43 15 0 8
-9 21 -20 29 l-20 14 20 18 c11 10 20 13 20 7 0 -20 40 -24 66 -7 18 12 22 20
16 33 -13 25 -4 42 24 42 29 0 30 7 3 36 -12 12 -18 27 -14 33 9 15 38 14 54
-1 11 -11 13 -10 8 5 -4 9 -2 17 4 17 5 0 15 11 21 25 9 20 16 24 40 20 23 -4
30 -1 37 16 14 41 -6 89 -24 58 -5 -6 -13 -2 -22 11 -10 15 -12 25 -5 32 6 6
12 6 16 -1 4 -6 23 -11 42 -11 24 0 34 -5 34 -15 0 -21 20 -19 20 3 1 47 80
77 102 39 16 -29 31 -19 26 16 -6 39 -1 57 17 57 8 0 23 12 34 26 13 16 21 21
21 12 0 -8 6 -23 14 -33 12 -17 16 -17 30 -6 15 13 15 16 -6 38 -16 18 -19 26
-10 35 14 14 22 7 26 -19 4 -28 34 -29 32 -1 0 13 4 23 11 23 22 0 24 13 4 25
-27 14 -27 26 2 34 22 6 52 -18 41 -35 -2 -4 4 -13 15 -19 24 -12 42 7 20 21
-20 13 49 73 86 75 14 1 38 12 51 25 l25 24 -30 8 c-17 4 -31 14 -31 22 0 12
5 12 26 5 18 -7 30 -7 39 0 9 8 17 6 29 -6 18 -17 26 -15 30 8 12 69 17 78 37
67 11 -5 24 -7 29 -4 5 3 20 3 34 -1 21 -5 24 -9 16 -24 -16 -29 -12 -31 25
-9 35 21 49 47 19 35 -10 -4 -27 6 -47 26 -27 28 -29 33 -14 36 10 2 25 -2 33
-9 13 -11 15 -7 11 29 -5 49 6 73 25 54 19 -19 27 -14 22 14 -4 24 -3 26 21
20 16 -4 24 -3 21 3 -12 19 35 23 55 5 17 -15 19 -15 19 -1 0 8 -23 41 -51 71
-28 31 -47 56 -43 56 4 0 3 5 -4 12 -15 15 -16 48 -2 48 6 0 10 -5 10 -10 0
-6 11 -15 25 -20 28 -11 75 2 75 21 0 6 -7 9 -15 5 -20 -7 -65 14 -65 30 0 28
53 49 133 53 18 1 25 31 7 31 -18 0 -10 23 18 53 16 18 21 28 11 24 -9 -3 -31
4 -49 15 l-33 20 26 24 c16 14 27 36 27 50 0 14 7 32 15 41 9 9 13 23 10 34
-5 14 -1 19 12 19 28 1 117 70 105 82 -11 11 -62 -17 -62 -33 0 -5 -11 -9 -25
-9 -13 0 -37 -5 -52 -11 -15 -6 -37 -15 -48 -20 -11 -4 -31 -11 -45 -15 l-25
-6 25 27 c14 15 24 34 22 44 -2 14 4 16 33 13 21 -3 35 0 35 7 0 6 -7 8 -17 4
-11 -5 -14 -3 -8 6 6 10 -2 12 -34 6 -27 -4 -41 -3 -41 4 0 6 -7 11 -17 11
-14 0 -14 -2 2 -20 10 -11 14 -21 9 -21 -11 -2 -63 -6 -86 -8 -10 -1 -17 -4
-16 -8 3 -16 -15 -42 -39 -58 l-25 -17 7 33 c6 27 5 31 -10 26 -12 -5 -15 -2
-12 11 3 14 -18 73 -26 71 -1 0 -27 -13 -57 -29z"/>
<path d="M6762 2949 c-27 -10 -21 -28 8 -26 12 1 20 8 20 19 0 10 -1 18 -2 17
-2 0 -13 -4 -26 -10z"/>
<path d="M839 2799 c-24 -24 -21 -54 6 -54 15 0 20 7 21 25 0 14 3 31 8 38 12
20 -12 14 -35 -9z"/>
<path d="M5405 2688 c-40 -23 -61 -58 -35 -58 13 0 69 28 88 43 11 8 11 12 0
18 -17 11 -29 11 -53 -3z"/>
<path d="M1562 2510 c-6 -11 -12 -24 -12 -30 0 -15 26 -12 40 6 11 12 11 18
-1 29 -13 13 -16 12 -27 -5z"/>
<path d="M1135 2490 c-17 -33 -12 -47 20 -51 65 -9 69 -1 26 50 l-29 34 -17
-33z"/>
<path d="M4843 2314 c-3 -8 -1 -26 5 -40 10 -19 9 -24 -3 -24 -8 0 -15 -4 -15
-10 0 -14 33 -13 48 2 7 7 12 23 12 36 0 20 -4 23 -20 19 -17 -4 -20 -2 -15
14 8 23 -3 26 -12 3z"/>
<path d="M6322 2234 c-7 -8 -17 -12 -23 -9 -5 4 -9 1 -9 -4 0 -6 8 -11 18 -11
19 0 42 18 42 32 0 12 -14 9 -28 -8z"/>
<path d="M3874 1485 c-3 -14 -12 -25 -20 -25 -16 0 -18 -9 -4 -30 8 -12 13
-11 33 8 13 12 32 22 42 22 15 0 14 4 -9 25 -15 14 -29 25 -31 25 -3 0 -7 -11
-11 -25z"/>
<path d="M5292 1427 c-20 -24 8 -42 36 -23 10 6 10 11 1 22 -14 17 -23 18 -37
1z"/>
<path d="M3480 1300 c-21 -18 -29 -29 -20 -30 8 0 31 14 50 30 22 18 29 30 20
30 -9 0 -31 -13 -50 -30z"/>
<path d="M4742 754 c-26 -18 -29 -44 -6 -44 11 0 15 -6 11 -20 -6 -25 10 -37
17 -13 3 10 19 24 36 31 31 14 41 42 15 42 -8 0 -15 -4 -15 -10 0 -5 -4 -10
-10 -10 -5 0 -10 6 -10 14 0 23 -15 27 -38 10z"/>
<path d="M4701 646 c-7 -8 -21 -12 -31 -9 -28 7 -26 -24 2 -33 22 -7 48 16 48
43 0 17 -5 16 -19 -1z"/>
<path d="M3160 455 c-10 -19 -11 -28 -2 -37 16 -16 42 -2 39 22 -6 36 -22 43
-37 15z"/>
<path d="M3440 145 c-1 -5 -3 -18 -5 -28 -2 -12 7 -22 32 -32 48 -20 60 -19
38 5 -10 11 -23 20 -30 20 -7 0 -17 10 -23 23 -6 12 -11 18 -12 12z"/>
<path d="M3770 53 c0 -10 4 -24 9 -32 7 -11 11 -10 19 6 8 14 8 23 0 31 -17
17 -28 15 -28 -5z"/>
</g>
</svg>
